<svg width="1500" height="1250" viewBox="0 0 1500 1250" fill="none" xmlns="http://www.w3.org/2000/svg">
<style>
  .bg { fill: #f2f2f2; }
  .frame { stroke: #1a1a1a; stroke-opacity: 0.35; }
  .content { fill: #1a1a1a; fill-opacity: 0.36; }
  .dot-red { fill: #9A3E3E; }
  .dot-blue { fill: #5273C7; }
  .dot-green { fill: #6D9C7A; }
</style>
<rect width="1500" height="1250" rx="75" class="bg"/>
<rect x="2.5" y="2.5" width="1495" height="1245" rx="72.5" class="frame" stroke-width="5"/>
<rect x="103" y="148" width="1294" height="1002" rx="36" class="frame" stroke-width="4"/>
<circle cx="120.5" cy="79.5" r="19.5" class="dot-red"/>
<circle cx="175.5" cy="79.5" r="19.5" class="dot-blue"/>
<path d="M250 79.5C250 90.2696 241.27 99 230.5 99C219.73 99 211 90.2696 211 79.5C211 68.7304 219.73 60 230.5 60C241.27 60 250 68.7304 250 79.5Z" class="dot-green"/>
<path d="M357.932 328.54C348.319 328.54 339.919 326.393 332.732 322.1C325.545 317.713 319.945 311.647 315.932 303.9C311.919 296.06 309.912 286.913 309.912 276.46C309.912 266.007 311.965 256.86 316.072 249.02C320.179 241.18 325.872 235.067 333.152 230.68C340.525 226.293 349.019 224.1 358.632 224.1C366.285 224.1 373.192 225.547 379.352 228.44C385.512 231.24 390.645 235.207 394.752 240.34C398.859 245.473 401.519 251.493 402.732 258.4H388.032C386.165 251.773 382.572 246.593 377.252 242.86C371.932 239.127 365.585 237.26 358.212 237.26C351.399 237.26 345.425 238.893 340.292 242.16C335.252 245.333 331.332 249.86 328.532 255.74C325.732 261.527 324.332 268.387 324.332 276.32C324.332 284.16 325.732 291.02 328.532 296.9C331.332 302.78 335.299 307.353 340.432 310.62C345.565 313.793 351.492 315.38 358.212 315.38C365.679 315.38 372.119 313.56 377.532 309.92C383.039 306.187 386.725 301.193 388.592 294.94H403.152C401.752 301.66 398.905 307.54 394.612 312.58C390.412 317.62 385.139 321.54 378.792 324.34C372.539 327.14 365.585 328.54 357.932 328.54ZM458.055 258.54H471.075V327H459.315L457.915 316.64C455.955 320.187 452.875 323.08 448.675 325.32C444.475 327.56 439.855 328.68 434.815 328.68C426.882 328.68 420.722 326.207 416.335 321.26C412.042 316.22 409.895 309.5 409.895 301.1V258.54H423.055V296.76C423.055 304.04 424.502 309.267 427.395 312.44C430.382 315.52 434.395 317.06 439.435 317.06C445.502 317.06 450.122 315.193 453.295 311.46C456.468 307.633 458.055 302.033 458.055 294.66V258.54ZM522.368 257.98V270.02H516.488C510.235 270.02 505.288 271.84 501.648 275.48C498.102 279.027 496.328 284.113 496.328 290.74V327H483.168V258.68H495.488L496.608 272.4H495.348C496.282 267.92 498.522 264.28 502.068 261.48C505.615 258.587 510.048 257.14 515.368 257.14C516.582 257.14 517.702 257.233 518.728 257.42C519.848 257.513 521.062 257.7 522.368 257.98ZM544.997 328.68C537.717 328.68 531.977 326.767 527.777 322.94C523.67 319.113 521.617 314.12 521.617 307.96C521.617 301.707 523.857 296.713 528.337 292.98C532.817 289.153 539.07 286.913 547.097 286.26L568.657 284.58V282.62C568.657 278.793 567.957 275.76 566.557 273.52C565.157 271.187 563.244 269.553 560.817 268.62C558.39 267.593 555.637 267.08 552.557 267.08C547.05 267.08 542.757 268.247 539.677 270.58C536.69 272.82 535.197 276.04 535.197 280.24H523.717C523.717 275.48 524.93 271.327 527.357 267.78C529.784 264.233 533.19 261.48 537.577 259.52C542.057 257.56 547.237 256.58 553.117 256.58C558.81 256.58 563.757 257.607 567.957 259.66C572.25 261.62 575.564 264.653 577.897 268.76C580.324 272.773 581.537 277.86 581.537 284.02V327H570.337L568.937 315.94C567.164 319.86 564.084 322.987 559.697 325.32C555.404 327.56 550.504 328.68 544.997 328.68ZM548.777 318.46C555.03 318.46 559.93 316.593 563.477 312.86C567.024 309.033 568.797 303.9 568.797 297.46V293.82L551.297 295.22C545.51 295.78 541.31 297.133 538.697 299.28C536.177 301.427 534.917 304.18 534.917 307.54C534.917 311.18 536.13 313.933 538.557 315.8C541.077 317.573 544.484 318.46 548.777 318.46ZM584.388 258.54H624.428V269.6H584.388V258.54ZM610.988 327H597.828V237.12H610.988V327ZM658.095 328.68C651.468 328.68 645.588 327.187 640.455 324.2C635.322 321.12 631.308 316.92 628.415 311.6C625.522 306.187 624.075 299.933 624.075 292.84C624.075 285.653 625.475 279.353 628.275 273.94C631.168 268.527 635.088 264.28 640.035 261.2C645.075 258.12 650.908 256.58 657.535 256.58C664.068 256.58 669.715 257.98 674.475 260.78C679.328 263.58 683.062 267.5 685.675 272.54C688.382 277.58 689.735 283.507 689.735 290.32V295.22L631.075 295.36L631.355 286.54H676.575C676.575 280.847 674.848 276.273 671.395 272.82C667.942 269.367 663.322 267.64 657.535 267.64C653.148 267.64 649.368 268.62 646.195 270.58C643.115 272.447 640.735 275.247 639.055 278.98C637.468 282.62 636.675 287.007 636.675 292.14C636.675 300.353 638.542 306.7 642.275 311.18C646.008 315.567 651.375 317.76 658.375 317.76C663.508 317.76 667.708 316.733 670.975 314.68C674.242 312.627 676.435 309.64 677.555 305.72H689.875C688.195 313 684.602 318.647 679.095 322.66C673.588 326.673 666.588 328.68 658.095 328.68ZM724.874 328.68C718.247 328.68 712.554 327.187 707.794 324.2C703.034 321.12 699.347 316.873 696.734 311.46C694.214 306.047 692.954 299.887 692.954 292.98C692.954 285.98 694.261 279.773 696.874 274.36C699.487 268.853 703.221 264.513 708.074 261.34C712.927 258.167 718.714 256.58 725.434 256.58C730.754 256.58 735.467 257.7 739.574 259.94C743.774 262.087 747.041 265.307 749.374 269.6V223.96H762.394V327H750.634L749.514 314.54C747.274 319.113 743.961 322.613 739.574 325.04C735.281 327.467 730.381 328.68 724.874 328.68ZM727.534 316.78C732.014 316.78 735.841 315.753 739.014 313.7C742.281 311.647 744.801 308.8 746.574 305.16C748.347 301.52 749.234 297.32 749.234 292.56C749.234 287.8 748.347 283.647 746.574 280.1C744.801 276.46 742.281 273.613 739.014 271.56C735.841 269.507 732.014 268.48 727.534 268.48C723.054 268.48 719.227 269.553 716.054 271.7C712.881 273.753 710.454 276.6 708.774 280.24C707.094 283.787 706.254 287.893 706.254 292.56C706.254 297.32 707.094 301.52 708.774 305.16C710.454 308.8 712.881 311.647 716.054 313.7C719.227 315.753 723.054 316.78 727.534 316.78ZM798.381 258.54H837.861V269.6H798.381V258.54ZM838.281 224.52V235.86C837.441 235.86 836.507 235.86 835.481 235.86C834.547 235.86 833.521 235.86 832.401 235.86C828.107 235.86 825.214 236.887 823.721 238.94C822.321 240.993 821.621 243.887 821.621 247.62V327H808.461V247.62C808.461 242.02 809.394 237.493 811.261 234.04C813.221 230.493 815.787 227.927 818.961 226.34C822.227 224.753 825.961 223.96 830.161 223.96C831.467 223.96 832.821 224.007 834.221 224.1C835.621 224.193 836.974 224.333 838.281 224.52ZM836.563 292.7C836.563 285.7 838.103 279.493 841.183 274.08C844.263 268.667 848.463 264.42 853.783 261.34C859.197 258.26 865.357 256.72 872.263 256.72C879.17 256.72 885.283 258.26 890.603 261.34C895.923 264.42 900.123 268.667 903.203 274.08C906.283 279.493 907.823 285.7 907.823 292.7C907.823 299.7 906.283 305.907 903.203 311.32C900.123 316.733 895.923 320.98 890.603 324.06C885.283 327.14 879.17 328.68 872.263 328.68C865.357 328.68 859.197 327.14 853.783 324.06C848.463 320.98 844.263 316.733 841.183 311.32C838.103 305.907 836.563 299.7 836.563 292.7ZM849.863 292.7C849.863 297.46 850.797 301.66 852.663 305.3C854.623 308.94 857.283 311.787 860.643 313.84C864.003 315.893 867.877 316.92 872.263 316.92C876.65 316.92 880.523 315.893 883.883 313.84C887.243 311.787 889.857 308.94 891.723 305.3C893.683 301.66 894.663 297.46 894.663 292.7C894.663 287.847 893.683 283.647 891.723 280.1C889.857 276.46 887.243 273.613 883.883 271.56C880.523 269.507 876.65 268.48 872.263 268.48C867.877 268.48 864.003 269.507 860.643 271.56C857.283 273.613 854.623 276.46 852.663 280.1C850.797 283.647 849.863 287.847 849.863 292.7ZM954.591 257.98V270.02H948.711C942.458 270.02 937.511 271.84 933.871 275.48C930.324 279.027 928.551 284.113 928.551 290.74V327H915.391V258.68H927.711L928.831 272.4H927.571C928.504 267.92 930.744 264.28 934.291 261.48C937.838 258.587 942.271 257.14 947.591 257.14C948.804 257.14 949.924 257.233 950.951 257.42C952.071 257.513 953.284 257.7 954.591 257.98ZM996.675 258.54L1020.76 325.18L1012.64 336.38L982.815 258.54H996.675ZM984.635 357.66V346.88H993.455C995.602 346.88 997.562 346.647 999.335 346.18C1001.11 345.807 1002.74 344.92 1004.24 343.52C1005.73 342.213 1006.99 340.113 1008.02 337.22L1036.86 258.54H1050.44L1018.1 342.4C1015.76 348.28 1012.82 352.527 1009.28 355.14C1005.73 357.753 1001.34 359.06 996.115 359.06C993.969 359.06 991.962 358.92 990.095 358.64C988.229 358.453 986.409 358.127 984.635 357.66ZM1046.73 292.7C1046.73 285.7 1048.27 279.493 1051.35 274.08C1054.43 268.667 1058.63 264.42 1063.95 261.34C1069.36 258.26 1075.52 256.72 1082.43 256.72C1089.33 256.72 1095.45 258.26 1100.77 261.34C1106.09 264.42 1110.29 268.667 1113.37 274.08C1116.45 279.493 1117.99 285.7 1117.99 292.7C1117.99 299.7 1116.45 305.907 1113.37 311.32C1110.29 316.733 1106.09 320.98 1100.77 324.06C1095.45 327.14 1089.33 328.68 1082.43 328.68C1075.52 328.68 1069.36 327.14 1063.95 324.06C1058.63 320.98 1054.43 316.733 1051.35 311.32C1048.27 305.907 1046.73 299.7 1046.73 292.7ZM1060.03 292.7C1060.03 297.46 1060.96 301.66 1062.83 305.3C1064.79 308.94 1067.45 311.787 1070.81 313.84C1074.17 315.893 1078.04 316.92 1082.43 316.92C1086.81 316.92 1090.69 315.893 1094.05 313.84C1097.41 311.787 1100.02 308.94 1101.89 305.3C1103.85 301.66 1104.83 297.46 1104.83 292.7C1104.83 287.847 1103.85 283.647 1101.89 280.1C1100.02 276.46 1097.41 273.613 1094.05 271.56C1090.69 269.507 1086.81 268.48 1082.43 268.48C1078.04 268.48 1074.17 269.507 1070.81 271.56C1067.45 273.613 1064.79 276.46 1062.83 280.1C1060.96 283.647 1060.03 287.847 1060.03 292.7ZM1171.23 258.54H1184.25V327H1172.49L1171.09 316.64C1169.13 320.187 1166.05 323.08 1161.85 325.32C1157.65 327.56 1153.03 328.68 1147.99 328.68C1140.06 328.68 1133.9 326.207 1129.51 321.26C1125.22 316.22 1123.07 309.5 1123.07 301.1V258.54H1136.23V296.76C1136.23 304.04 1137.68 309.267 1140.57 312.44C1143.56 315.52 1147.57 317.06 1152.61 317.06C1158.68 317.06 1163.3 315.193 1166.47 311.46C1169.65 307.633 1171.23 302.033 1171.23 294.66V258.54Z" class="content"/>
<rect x="213" y="431" width="296" height="296" rx="32" class="frame" stroke-width="4"/>
<rect x="602" y="431" width="296" height="296" rx="32" class="frame" stroke-width="4"/>
<rect x="990.5" y="430.5" width="297" height="297" rx="32.5" class="frame" stroke-width="3"/>
<rect x="213" y="763" width="296" height="296" rx="32" class="frame" stroke-width="4"/>
<rect x="602" y="763" width="296" height="296" rx="32" class="frame" stroke-width="4"/>
<rect x="991" y="763" width="296" height="296" rx="32" class="frame" stroke-width="4"/>
<rect x="1074" y="803" width="129" height="215" rx="3" class="frame" stroke-width="5"/>
<path d="M1160 813.749H1117" class="frame" stroke-width="2" stroke-linecap="round"/>
<path d="M787.974 1006L785.966 1010.03C787.361 1010.72 789.017 1010.65 790.342 1009.83C791.668 1009.01 792.474 1007.56 792.474 1006H787.974ZM749.5 986.817L751.508 982.79C750.244 982.16 748.756 982.16 747.492 982.79L749.5 986.817ZM711.026 1006H706.526C706.526 1007.56 707.332 1009.01 708.658 1009.83C709.983 1010.65 711.639 1010.72 713.034 1010.03L711.026 1006ZM718.248 828.916L718.608 824.43V824.43L718.248 828.916ZM734.444 822.226L731.021 819.305V819.305L734.444 822.226ZM696.905 849.527L692.42 849.889V849.889L696.905 849.527ZM717.625 828.866L717.264 833.351V833.351L717.625 828.866ZM690.247 866.299L687.335 862.867H687.335L690.247 866.299ZM696.955 850.149L701.441 849.786L701.441 849.786L696.955 850.149ZM689.771 895.922L686.859 899.353L686.859 899.353L689.771 895.922ZM689.771 866.703L692.682 870.134H692.682L689.771 866.703ZM696.955 912.476L692.47 912.114H692.47L696.955 912.476ZM690.247 896.326L693.158 892.895L693.158 892.895L690.247 896.326ZM717.625 933.759L717.985 938.244H717.985L717.625 933.759ZM696.905 913.098L701.391 913.46V913.46L696.905 913.098ZM734.444 940.398L737.867 937.477L737.867 937.477L734.444 940.398ZM718.248 933.709L717.888 929.223H717.888L718.248 933.709ZM764.151 940.873L767.574 943.794L767.574 943.794L764.151 940.873ZM734.849 940.873L731.426 943.794L731.426 943.794L734.849 940.873ZM780.752 933.709L781.112 929.223H781.112L780.752 933.709ZM764.556 940.398L761.133 937.477L761.133 937.477L764.556 940.398ZM802.095 913.098L797.609 913.46L797.609 913.46L802.095 913.098ZM781.375 933.759L781.015 938.244H781.015L781.375 933.759ZM808.753 896.326L811.665 899.757L811.665 899.757L808.753 896.326ZM802.045 912.476L806.53 912.114L806.53 912.114L802.045 912.476ZM809.229 866.703L812.141 863.271V863.271L809.229 866.703ZM809.229 895.922L806.318 892.491L806.318 892.491L809.229 895.922ZM802.045 850.149L806.53 850.511L806.53 850.511L802.045 850.149ZM808.753 866.299L805.842 869.73V869.73L808.753 866.299ZM781.375 828.866L781.015 824.38V824.38L781.375 828.866ZM802.095 849.527L797.609 849.165L797.609 849.165L802.095 849.527ZM764.556 822.226L767.979 819.305L767.979 819.305L764.556 822.226ZM780.752 828.916L781.112 833.402V833.402L780.752 828.916ZM764.151 821.752L760.728 824.673L760.728 824.673L764.151 821.752ZM734.849 821.752L738.272 824.672V824.672L734.849 821.752ZM720.645 933.665L720.446 938.161L720.645 933.665ZM778.355 933.665L778.554 938.161L778.355 933.665ZM787.974 933.157L786.797 928.813V928.813L787.974 933.157ZM787.974 1006L789.982 1001.97L751.508 982.79L749.5 986.817L747.492 990.845L785.966 1010.03L787.974 1006ZM749.5 986.817L747.492 982.79L709.018 1001.97L711.026 1006L713.034 1010.03L751.508 990.845L749.5 986.817ZM764.151 821.752L760.728 824.673L761.133 825.147L764.556 822.226L767.979 819.305L767.574 818.831L764.151 821.752ZM780.752 828.916L781.112 833.402L781.736 833.351L781.375 828.866L781.015 824.38L780.392 824.43L780.752 828.916ZM802.095 849.527L797.609 849.165L797.559 849.786L802.045 850.149L806.53 850.511L806.58 849.889L802.095 849.527ZM808.753 866.299L805.842 869.73L806.318 870.134L809.229 866.703L812.141 863.271L811.665 862.867L808.753 866.299ZM809.229 895.922L806.318 892.491L805.842 892.895L808.753 896.326L811.665 899.757L812.141 899.353L809.229 895.922ZM802.045 912.476L797.559 912.839L797.609 913.46L802.095 913.098L806.58 912.735L806.53 912.114L802.045 912.476ZM781.375 933.759L781.736 929.273L781.112 929.223L780.752 933.709L780.392 938.194L781.015 938.244L781.375 933.759ZM764.556 940.398L761.133 937.477L760.728 937.952L764.151 940.873L767.574 943.794L767.979 943.319L764.556 940.398ZM734.849 940.873L738.272 937.952L737.867 937.477L734.444 940.398L731.021 943.319L731.426 943.794L734.849 940.873ZM718.248 933.709L717.888 929.223L717.264 929.273L717.625 933.759L717.985 938.244L718.608 938.194L718.248 933.709ZM696.905 913.098L701.391 913.46L701.441 912.839L696.955 912.476L692.47 912.114L692.42 912.735L696.905 913.098ZM690.247 896.326L693.158 892.895L692.682 892.491L689.771 895.922L686.859 899.353L687.335 899.757L690.247 896.326ZM689.771 866.703L692.682 870.134L693.158 869.73L690.247 866.299L687.335 862.867L686.859 863.271L689.771 866.703ZM696.955 850.149L701.441 849.786L701.391 849.165L696.905 849.527L692.42 849.889L692.47 850.511L696.955 850.149ZM717.625 828.866L717.264 833.351L717.888 833.402L718.248 828.916L718.608 824.43L717.985 824.38L717.625 828.866ZM734.444 822.226L737.867 825.147L738.272 824.672L734.849 821.752L731.426 818.831L731.021 819.305L734.444 822.226ZM718.248 828.916L717.888 833.402C725.487 834.012 732.921 830.943 737.867 825.147L734.444 822.226L731.021 819.305C727.953 822.901 723.335 824.81 718.608 824.43L718.248 828.916ZM696.905 849.527L701.391 849.165C700.663 840.162 708.198 832.623 717.264 833.351L717.625 828.866L717.985 824.38C703.421 823.21 691.243 835.329 692.42 849.889L696.905 849.527ZM690.247 866.299L693.158 869.73C698.97 864.799 702.054 857.379 701.441 849.786L696.955 850.149L692.47 850.511C692.85 855.21 690.942 859.808 687.335 862.867L690.247 866.299ZM689.771 895.922L692.682 892.491C685.773 886.628 685.773 875.997 692.682 870.134L689.771 866.703L686.859 863.271C675.714 872.728 675.714 889.896 686.859 899.353L689.771 895.922ZM696.955 912.476L701.441 912.839C702.054 905.246 698.97 897.826 693.158 892.895L690.247 896.326L687.335 899.757C690.942 902.817 692.85 907.415 692.47 912.114L696.955 912.476ZM764.151 940.873L760.728 937.952C754.843 944.849 744.157 944.849 738.272 937.952L734.849 940.873L731.426 943.794C740.904 954.902 758.096 954.902 767.574 943.794L764.151 940.873ZM808.753 896.326L805.842 892.895C800.03 897.826 796.946 905.246 797.559 912.839L802.045 912.476L806.53 912.114C806.15 907.415 808.058 902.817 811.665 899.757L808.753 896.326ZM809.229 866.703L806.318 870.134C813.227 875.997 813.227 886.628 806.318 892.491L809.229 895.922L812.141 899.353C823.286 889.896 823.286 872.728 812.141 863.271L809.229 866.703ZM802.045 850.149L797.559 849.786C796.946 857.379 800.03 864.799 805.842 869.73L808.753 866.299L811.665 862.867C808.058 859.808 806.15 855.21 806.53 850.511L802.045 850.149ZM781.375 828.866L781.736 833.351C790.802 832.623 798.337 840.162 797.609 849.165L802.095 849.527L806.58 849.889C807.757 835.329 795.579 823.21 781.015 824.38L781.375 828.866ZM764.556 822.226L761.133 825.147C766.079 830.943 773.513 834.012 781.112 833.402L780.752 828.916L780.392 824.43C775.665 824.81 771.047 822.901 767.979 819.305L764.556 822.226ZM764.151 821.752L767.574 818.831C758.096 807.723 740.904 807.723 731.426 818.831L734.849 821.752L738.272 824.672C744.157 817.776 754.843 817.776 760.728 824.673L764.151 821.752ZM734.444 940.398L737.867 937.477C733.565 932.436 727.381 929.458 720.843 929.17L720.645 933.665L720.446 938.161C724.512 938.34 728.353 940.193 731.021 943.319L734.444 940.398ZM720.645 933.665L720.843 929.17C719.864 929.127 718.877 929.144 717.888 929.223L718.248 933.709L718.608 938.194C719.224 938.145 719.838 938.134 720.446 938.161L720.645 933.665ZM780.752 933.709L781.112 929.223C780.123 929.144 779.136 929.127 778.157 929.17L778.355 933.665L778.554 938.161C779.162 938.134 779.776 938.145 780.392 938.194L780.752 933.709ZM778.355 933.665L778.157 929.17C771.619 929.458 765.435 932.436 761.133 937.477L764.556 940.398L767.979 943.319C770.647 940.193 774.488 938.34 778.554 938.161L778.355 933.665ZM802.095 913.098L797.609 913.46C798.195 920.704 793.429 927.016 786.797 928.813L787.974 933.157L789.151 937.5C799.795 934.615 807.529 924.477 806.58 912.735L802.095 913.098ZM787.974 933.157L786.797 928.813C785.209 929.244 783.508 929.416 781.736 929.273L781.375 933.759L781.015 938.244C783.833 938.471 786.574 938.198 789.151 937.5L787.974 933.157ZM787.974 933.157H783.474V1006H787.974H792.474V933.157H787.974ZM717.625 933.759L717.264 929.273C715.492 929.416 713.791 929.244 712.203 928.813L711.026 933.157L709.848 937.5C712.426 938.198 715.167 938.471 717.985 938.244L717.625 933.759ZM711.026 933.157L712.203 928.813C705.571 927.016 700.805 920.704 701.391 913.46L696.905 913.098L692.42 912.735C691.471 924.477 699.205 934.615 709.848 937.5L711.026 933.157ZM711.026 933.157H706.526V1006H711.026H715.526V933.157H711.026Z" class="content"/>
<path d="M405.903 916.68L402.603 913.62L405.903 916.68ZM355.308 866.085L358.368 869.385L355.308 866.085ZM429.925 855.599L434.387 856.183L429.925 855.599ZM416.389 842.063L416.972 846.525V846.525L416.389 842.063ZM321.406 915.547L325.447 917.528L321.406 915.547ZM356.441 950.582L354.46 946.541L356.441 950.582ZM310.317 950.997C312.075 949.24 312.075 946.39 310.317 944.633C308.56 942.876 305.711 942.876 303.953 944.633L307.135 947.815L310.317 950.997ZM283.716 964.871C281.958 966.628 281.958 969.477 283.716 971.235C285.473 972.992 288.322 972.992 290.079 971.235L286.897 968.053L283.716 964.871ZM325.496 966.175C327.253 964.418 327.253 961.569 325.496 959.811C323.738 958.054 320.889 958.054 319.132 959.811L322.314 962.993L325.496 966.175ZM309.013 969.93C307.255 971.688 307.255 974.537 309.013 976.294C310.77 978.052 313.619 978.052 315.377 976.294L312.195 973.112L309.013 969.93ZM350.755 975.875L355.21 975.239L355.21 975.239L350.755 975.875ZM387.689 951.084L383.234 951.72V951.72L387.689 951.084ZM296.112 921.233L296.749 916.778L296.749 916.778L296.112 921.233ZM320.904 884.299L320.267 888.754L320.267 888.754L320.904 884.299ZM340.908 947.815L344.09 944.633L327.355 927.898L324.173 931.08L320.991 934.262L337.726 950.997L340.908 947.815ZM405.903 916.68L402.603 913.62C388.937 928.355 366.809 940.487 354.46 946.541L356.441 950.582L358.421 954.622C370.864 948.522 394.317 935.789 409.202 919.74L405.903 916.68ZM321.406 915.547L325.447 917.528C331.501 905.179 343.633 883.051 358.368 869.385L355.308 866.085L352.248 862.786C336.199 877.67 323.465 901.124 317.366 913.566L321.406 915.547ZM429.925 855.599L425.463 855.016C423.286 871.66 417.487 897.572 402.603 913.62L405.903 916.68L409.202 919.74C426.144 901.473 432.182 873.041 434.387 856.183L429.925 855.599ZM355.308 866.085L358.368 869.385C374.416 854.501 400.328 848.702 416.972 846.525L416.389 842.063L415.805 837.601C398.947 839.806 370.515 845.844 352.248 862.786L355.308 866.085ZM429.925 855.599L434.387 856.183C435.824 845.199 426.788 836.164 415.805 837.601L416.389 842.063L416.972 846.525C422.094 845.855 426.133 849.894 425.463 855.016L429.925 855.599ZM324.173 931.08L327.355 927.898C324.511 925.054 323.783 920.922 325.447 917.528L321.406 915.547L317.366 913.566C313.903 920.63 315.599 928.87 320.991 934.262L324.173 931.08ZM340.908 947.815L337.726 950.997C343.117 956.388 351.358 958.085 358.421 954.622L356.441 950.582L354.46 946.541C351.066 948.205 346.934 947.477 344.09 944.633L340.908 947.815ZM307.135 947.815L303.953 944.633L283.716 964.871L286.897 968.053L290.079 971.235L310.317 950.997L307.135 947.815ZM322.314 962.993L319.132 959.811L309.013 969.93L312.195 973.112L315.377 976.294L325.496 966.175L322.314 962.993ZM373.016 878.734L369.834 875.552C362.489 882.897 362.489 894.808 369.834 902.153L373.016 898.971L376.198 895.789C372.367 891.958 372.367 885.747 376.198 881.916L373.016 878.734ZM373.016 898.971L369.834 902.153C377.18 909.499 389.09 909.499 396.436 902.153L393.254 898.971L390.072 895.789C386.241 899.621 380.03 899.621 376.198 895.789L373.016 898.971ZM393.254 898.971L396.436 902.153C403.782 894.808 403.782 882.897 396.436 875.552L393.254 878.734L390.072 881.916C393.903 885.747 393.903 891.958 390.072 895.789L393.254 898.971ZM393.254 878.734L396.436 875.552C389.09 868.206 377.18 868.206 369.834 875.552L373.016 878.734L376.198 881.916C380.03 878.084 386.241 878.084 390.072 881.916L393.254 878.734ZM385.665 957.155L382.483 953.973L359.715 976.741L362.897 979.923L366.079 983.105L388.847 960.337L385.665 957.155ZM350.755 975.875L355.21 975.239L352.174 953.989L347.719 954.626L343.264 955.262L346.3 976.512L350.755 975.875ZM385.665 936.917L381.21 937.554L383.234 951.72L387.689 951.084L392.144 950.448L390.12 936.281L385.665 936.917ZM362.897 979.923L359.715 976.741C358.168 978.288 355.519 977.405 355.21 975.239L350.755 975.875L346.3 976.512C347.658 986.02 359.288 989.896 366.079 983.105L362.897 979.923ZM385.665 957.155L388.847 960.337C391.441 957.743 392.662 954.079 392.144 950.448L387.689 951.084L383.234 951.72C383.352 952.548 383.074 953.382 382.483 953.973L385.665 957.155ZM314.832 886.323L311.65 883.141L288.883 905.909L292.065 909.091L295.247 912.272L318.014 889.505L314.832 886.323ZM296.112 921.233L295.476 925.688L316.726 928.724L317.362 924.269L317.999 919.814L296.749 916.778L296.112 921.233ZM335.07 886.323L335.707 881.868L321.54 879.844L320.904 884.299L320.267 888.754L334.434 890.778L335.07 886.323ZM292.065 909.091L288.883 905.909C282.091 912.7 285.968 924.33 295.476 925.688L296.112 921.233L296.749 916.778C294.583 916.469 293.7 913.82 295.247 912.272L292.065 909.091ZM314.832 886.323L318.014 889.505C318.605 888.914 319.44 888.636 320.267 888.754L320.904 884.299L321.54 879.844C317.908 879.326 314.244 880.547 311.65 883.141L314.832 886.323Z" class="content"/>
<path d="M392.335 557.277L349.89 599.723L328.667 578.5M373.724 487.868L386.68 498.91C389.944 501.691 393.997 503.373 398.272 503.714L415.239 505.066C425.215 505.862 433.139 513.781 433.935 523.757L435.285 540.728C435.626 545.003 437.313 549.062 440.095 552.326L451.131 565.279C457.622 572.896 457.623 584.1 451.132 591.717L440.096 604.672C437.314 607.936 435.629 611.996 435.288 616.271L433.93 633.239C433.134 643.215 425.223 651.139 415.247 651.935L398.273 653.289C393.998 653.631 389.941 655.308 386.677 658.09L373.724 669.131C366.107 675.622 354.895 675.623 347.278 669.132L334.325 658.091C331.061 655.309 327.004 653.629 322.729 653.287L305.756 651.935C295.78 651.139 287.868 643.217 287.072 633.241L285.714 616.272C285.373 611.997 283.688 607.94 280.906 604.676L269.87 591.718C263.379 584.101 263.376 572.9 269.867 565.283L280.913 552.324C283.695 549.06 285.364 545.003 285.705 540.728L287.062 523.759C287.859 513.783 295.793 505.861 305.769 505.065L322.724 503.713C326.999 503.372 331.058 501.691 334.322 498.91L347.279 487.868C354.896 481.377 366.107 481.377 373.724 487.868Z" class="frame" stroke-width="9" stroke-linecap="round" stroke-linejoin="round"/>
<path d="M655 602.571C655 626.004 674.039 645 697.525 645H810.925C829.192 645 844 630.225 844 612C844 595.375 831.678 581.621 815.649 579.334C815.735 562.332 809.277 545.303 796.275 532.331C770.442 506.556 728.558 506.556 702.725 532.331C694.226 540.81 688.523 551.023 685.616 561.829C667.927 566.967 655 583.263 655 602.571Z" class="frame" stroke-width="9" stroke-linejoin="round"/>
<path d="M768 588.333L749 607L730 588.333M749 607L749 551" class="frame" stroke-width="9" stroke-linecap="round" stroke-linejoin="round"/>
<path d="M1051 603.336V620.853C1051 631.756 1051 637.203 1053.12 641.367C1054.98 645.03 1057.96 648.014 1061.61 649.88C1065.77 652 1071.21 652 1082.08 652H1226M1051 603.336V506M1051 603.336L1088.46 572.08L1088.49 572.055C1095.27 566.401 1098.67 563.569 1102.35 562.418C1106.7 561.059 1111.38 561.274 1115.59 563.022C1119.16 564.503 1122.29 567.635 1128.54 573.899L1128.6 573.961C1134.96 580.322 1138.14 583.511 1141.77 584.989C1146.06 586.739 1150.83 586.889 1155.23 585.43C1158.96 584.192 1162.36 581.215 1169.17 575.252L1226 525.467" class="frame" stroke-width="9" stroke-linecap="round" stroke-linejoin="round"/>
</svg>

