<svg width="1500" height="1250" viewBox="0 0 1500 1250" fill="none" xmlns="http://www.w3.org/2000/svg">
<rect width="1500" height="1250" rx="75" fill="#0D0D0D"/>
<rect x="2.5" y="2.5" width="1495" height="1245" rx="72.5" stroke="white" stroke-opacity="0.36" stroke-width="5"/>
<rect x="103" y="148" width="1294" height="1002" rx="36" stroke="white" stroke-opacity="0.36" stroke-width="4"/>
<circle cx="120.5" cy="79.5" r="19.5" fill="#9A3E3E"/>
<circle cx="175.5" cy="79.5" r="19.5" fill="#5273C7"/>
<path d="M250 79.5C250 90.2696 241.27 99 230.5 99C219.73 99 211 90.2696 211 79.5C211 68.7304 219.73 60 230.5 60C241.27 60 250 68.7304 250 79.5Z" fill="#6D9C7A"/>
<path d="M368.674 327H358.454L395.274 226.76H407.734L444.974 327H434.474L424.674 300.4H378.474L368.674 327ZM400.174 240.9L381.554 291.58H421.454L402.694 240.9C402.507 240.153 402.274 239.407 401.994 238.66C401.714 237.913 401.527 237.307 401.434 236.84C401.341 237.307 401.154 237.96 400.874 238.8C400.687 239.547 400.454 240.247 400.174 240.9ZM475.768 328.68C469.234 328.68 463.448 327.187 458.408 324.2C453.461 321.213 449.588 317.06 446.788 311.74C443.988 306.42 442.588 300.213 442.588 293.12C442.588 286.12 443.941 279.96 446.648 274.64C449.448 269.227 453.274 265.027 458.128 262.04C462.981 258.96 468.628 257.42 475.068 257.42C481.228 257.42 486.594 258.773 491.168 261.48C495.834 264.187 499.428 267.967 501.948 272.82C504.561 277.58 505.868 283.18 505.868 289.62V294.38H447.908L448.188 287.38H496.208C496.208 280.847 494.248 275.62 490.328 271.7C486.501 267.687 481.414 265.68 475.068 265.68C470.401 265.68 466.294 266.753 462.748 268.9C459.294 271.047 456.634 274.127 454.768 278.14C452.901 282.06 451.968 286.727 451.968 292.14C451.968 301.1 454.021 308.053 458.128 313C462.328 317.947 468.254 320.42 475.908 320.42C481.414 320.42 485.941 319.253 489.488 316.92C493.034 314.587 495.414 311.18 496.628 306.7H505.868C504.094 313.793 500.641 319.253 495.508 323.08C490.374 326.813 483.794 328.68 475.768 328.68ZM506.069 259.24H542.749V267.36H506.069V259.24ZM529.169 327H519.649V237.82H529.169V327ZM557.988 326.86H548.328V224.94H557.988V271C560.135 266.893 563.215 263.627 567.228 261.2C571.335 258.68 576.235 257.42 581.928 257.42C590.888 257.42 597.421 259.987 601.528 265.12C605.635 270.253 607.688 277.067 607.688 285.56V327H598.028V287.66C598.028 282.34 597.281 278.14 595.788 275.06C594.295 271.887 592.195 269.647 589.488 268.34C586.781 266.94 583.655 266.24 580.108 266.24C575.255 266.24 571.195 267.313 567.928 269.46C564.661 271.607 562.188 274.5 560.508 278.14C558.828 281.687 557.988 285.653 557.988 290.04V326.86ZM648.361 328.68C641.828 328.68 636.041 327.187 631.001 324.2C626.055 321.213 622.181 317.06 619.381 311.74C616.581 306.42 615.181 300.213 615.181 293.12C615.181 286.12 616.535 279.96 619.241 274.64C622.041 269.227 625.868 265.027 630.721 262.04C635.575 258.96 641.221 257.42 647.661 257.42C653.821 257.42 659.188 258.773 663.761 261.48C668.428 264.187 672.021 267.967 674.541 272.82C677.155 277.58 678.461 283.18 678.461 289.62V294.38H620.501L620.781 287.38H668.801C668.801 280.847 666.841 275.62 662.921 271.7C659.095 267.687 654.008 265.68 647.661 265.68C642.995 265.68 638.888 266.753 635.341 268.9C631.888 271.047 629.228 274.127 627.361 278.14C625.495 282.06 624.561 286.727 624.561 292.14C624.561 301.1 626.615 308.053 630.721 313C634.921 317.947 640.848 320.42 648.501 320.42C654.008 320.42 658.535 319.253 662.081 316.92C665.628 314.587 668.008 311.18 669.221 306.7H678.461C676.688 313.793 673.235 319.253 668.101 323.08C662.968 326.813 656.388 328.68 648.361 328.68ZM722.326 258.4V267.08H717.006C710.753 267.08 705.76 268.993 702.026 272.82C698.386 276.647 696.566 281.827 696.566 288.36V327H686.906V259.24H696.006L696.846 272.54H695.866C696.8 268.153 699.086 264.607 702.726 261.9C706.366 259.1 710.8 257.7 716.026 257.7C717.053 257.7 718.08 257.747 719.106 257.84C720.133 257.933 721.206 258.12 722.326 258.4ZM792.476 231.24V327H782.396V231.24H792.476ZM751.596 236V226.76H823.416V236H751.596ZM837.851 326.86H828.191V224.94H837.851V271C839.998 266.893 843.078 263.627 847.091 261.2C851.198 258.68 856.098 257.42 861.791 257.42C870.751 257.42 877.285 259.987 881.391 265.12C885.498 270.253 887.551 277.067 887.551 285.56V327H877.891V287.66C877.891 282.34 877.145 278.14 875.651 275.06C874.158 271.887 872.058 269.647 869.351 268.34C866.645 266.94 863.518 266.24 859.971 266.24C855.118 266.24 851.058 267.313 847.791 269.46C844.525 271.607 842.051 274.5 840.371 278.14C838.691 281.687 837.851 285.653 837.851 290.04V326.86ZM928.225 328.68C921.691 328.68 915.905 327.187 910.865 324.2C905.918 321.213 902.045 317.06 899.245 311.74C896.445 306.42 895.045 300.213 895.045 293.12C895.045 286.12 896.398 279.96 899.105 274.64C901.905 269.227 905.731 265.027 910.585 262.04C915.438 258.96 921.085 257.42 927.525 257.42C933.685 257.42 939.051 258.773 943.625 261.48C948.291 264.187 951.885 267.967 954.405 272.82C957.018 277.58 958.325 283.18 958.325 289.62V294.38H900.365L900.645 287.38H948.665C948.665 280.847 946.705 275.62 942.785 271.7C938.958 267.687 933.871 265.68 927.525 265.68C922.858 265.68 918.751 266.753 915.205 268.9C911.751 271.047 909.091 274.127 907.225 278.14C905.358 282.06 904.425 286.727 904.425 292.14C904.425 301.1 906.478 308.053 910.585 313C914.785 317.947 920.711 320.42 928.365 320.42C933.871 320.42 938.398 319.253 941.945 316.92C945.491 314.587 947.871 311.18 949.085 306.7H958.325C956.551 313.793 953.098 319.253 947.965 323.08C942.831 326.813 936.251 328.68 928.225 328.68ZM976.429 327H966.769V259.24H975.169L976.569 271.98L975.169 271.56C976.569 267.267 979.183 263.86 983.009 261.34C986.929 258.727 991.503 257.42 996.729 257.42C1002.8 257.42 1007.84 259.1 1011.85 262.46C1015.96 265.727 1018.57 270.207 1019.69 275.9H1017.59C1018.52 270.207 1021.04 265.727 1025.15 262.46C1029.35 259.1 1034.58 257.42 1040.83 257.42C1048.11 257.42 1053.99 259.66 1058.47 264.14C1062.95 268.62 1065.19 274.78 1065.19 282.62V327H1055.81V284.58C1055.81 278.793 1054.32 274.267 1051.33 271C1048.34 267.733 1044.24 266.1 1039.01 266.1C1035.28 266.1 1032.06 266.987 1029.35 268.76C1026.64 270.44 1024.54 272.727 1023.05 275.62C1021.65 278.513 1020.95 281.687 1020.95 285.14V327H1011.43V284.44C1011.43 278.653 1009.89 274.173 1006.81 271C1003.82 267.827 999.763 266.24 994.629 266.24C990.896 266.24 987.629 267.08 984.829 268.76C982.123 270.44 980.023 272.727 978.529 275.62C977.129 278.42 976.429 281.547 976.429 285V327ZM1106.04 328.68C1099.51 328.68 1093.72 327.187 1088.68 324.2C1083.73 321.213 1079.86 317.06 1077.06 311.74C1074.26 306.42 1072.86 300.213 1072.86 293.12C1072.86 286.12 1074.21 279.96 1076.92 274.64C1079.72 269.227 1083.55 265.027 1088.4 262.04C1093.25 258.96 1098.9 257.42 1105.34 257.42C1111.5 257.42 1116.87 258.773 1121.44 261.48C1126.11 264.187 1129.7 267.967 1132.22 272.82C1134.83 277.58 1136.14 283.18 1136.14 289.62V294.38H1078.18L1078.46 287.38H1126.48C1126.48 280.847 1124.52 275.62 1120.6 271.7C1116.77 267.687 1111.69 265.68 1105.34 265.68C1100.67 265.68 1096.57 266.753 1093.02 268.9C1089.57 271.047 1086.91 274.127 1085.04 278.14C1083.17 282.06 1082.24 286.727 1082.24 292.14C1082.24 301.1 1084.29 308.053 1088.4 313C1092.6 317.947 1098.53 320.42 1106.18 320.42C1111.69 320.42 1116.21 319.253 1119.76 316.92C1123.31 314.587 1125.69 311.18 1126.9 306.7H1136.14C1134.37 313.793 1130.91 319.253 1125.78 323.08C1120.65 326.813 1114.07 328.68 1106.04 328.68Z" fill="#D9D9D9" fill-opacity="0.36"/>
<rect x="213" y="431" width="296" height="296" rx="32" stroke="white" stroke-opacity="0.36" stroke-width="4"/>
<rect x="602" y="431" width="296" height="296" rx="32" stroke="white" stroke-opacity="0.36" stroke-width="4"/>
<rect x="990.5" y="430.5" width="297" height="297" rx="32.5" stroke="white" stroke-opacity="0.36" stroke-width="3"/>
<rect x="213" y="763" width="296" height="296" rx="32" stroke="white" stroke-opacity="0.36" stroke-width="4"/>
<rect x="602" y="763" width="296" height="296" rx="32" stroke="white" stroke-opacity="0.36" stroke-width="4"/>
<rect x="991" y="763" width="296" height="296" rx="32" stroke="white" stroke-opacity="0.36" stroke-width="4"/>
<rect x="1074" y="803" width="129" height="215" rx="3" stroke="white" stroke-opacity="0.36" stroke-width="5"/>
<path d="M1160 813.749H1117" stroke="white" stroke-width="2" stroke-linecap="round"/>
<path d="M787.974 1006L786.636 1008.68C787.566 1009.15 788.669 1009.1 789.553 1008.55C790.437 1008 790.974 1007.04 790.974 1006H787.974ZM749.5 986.817L750.839 984.133C749.996 983.712 749.004 983.712 748.161 984.133L749.5 986.817ZM711.026 1006H708.026C708.026 1007.04 708.563 1008 709.447 1008.55C710.331 1009.1 711.434 1009.15 712.364 1008.68L711.026 1006ZM718.248 828.916L718.488 825.926V825.926L718.248 828.916ZM734.444 822.226L732.162 820.279V820.279L734.444 822.226ZM696.905 849.527L693.915 849.769H693.915L696.905 849.527ZM717.625 828.866L717.385 831.856V831.856L717.625 828.866ZM690.247 866.299L688.306 864.011L688.306 864.011L690.247 866.299ZM696.955 850.149L699.946 849.907V849.907L696.955 850.149ZM689.771 895.922L687.83 898.21L687.83 898.21L689.771 895.922ZM689.771 866.703L691.712 868.99H691.712L689.771 866.703ZM696.955 912.476L693.965 912.235V912.235L696.955 912.476ZM690.247 896.326L692.188 894.039L692.188 894.039L690.247 896.326ZM717.625 933.759L717.865 936.749H717.865L717.625 933.759ZM696.905 913.098L699.895 913.339V913.339L696.905 913.098ZM734.444 940.398L736.726 938.451L736.726 938.451L734.444 940.398ZM718.248 933.709L718.008 930.718H718.008L718.248 933.709ZM764.151 940.873L766.433 942.821L766.433 942.821L764.151 940.873ZM734.849 940.873L732.567 942.821L732.567 942.821L734.849 940.873ZM780.752 933.709L780.992 930.718H780.992L780.752 933.709ZM764.556 940.398L762.274 938.451L762.274 938.451L764.556 940.398ZM802.095 913.098L799.105 913.339V913.339L802.095 913.098ZM781.375 933.759L781.135 936.749H781.135L781.375 933.759ZM808.753 896.326L810.694 898.614L810.694 898.614L808.753 896.326ZM802.045 912.476L805.035 912.235V912.235L802.045 912.476ZM809.229 866.703L811.17 864.415H811.17L809.229 866.703ZM809.229 895.922L807.288 893.635H807.288L809.229 895.922ZM802.045 850.149L805.035 850.39V850.39L802.045 850.149ZM808.753 866.299L806.812 868.586V868.586L808.753 866.299ZM781.375 828.866L781.135 825.876V825.876L781.375 828.866ZM802.095 849.527L799.105 849.286V849.286L802.095 849.527ZM764.556 822.226L766.838 820.279L766.838 820.279L764.556 822.226ZM780.752 828.916L780.992 831.906V831.906L780.752 828.916ZM764.151 821.752L761.869 823.699L761.869 823.699L764.151 821.752ZM734.849 821.752L737.131 823.699V823.699L734.849 821.752ZM720.645 933.665L720.512 936.663L720.645 933.665ZM778.355 933.665L778.488 936.663L778.355 933.665ZM787.974 933.157L787.19 930.261V930.261L787.974 933.157ZM787.974 1006L789.313 1003.32L750.839 984.133L749.5 986.817L748.161 989.502L786.636 1008.68L787.974 1006ZM749.5 986.817L748.161 984.133L709.687 1003.32L711.026 1006L712.364 1008.68L750.839 989.502L749.5 986.817ZM764.151 821.752L761.869 823.699L762.274 824.174L764.556 822.226L766.838 820.279L766.433 819.804L764.151 821.752ZM780.752 828.916L780.992 831.906L781.615 831.856L781.375 828.866L781.135 825.876L780.512 825.926L780.752 828.916ZM802.095 849.527L799.105 849.286L799.054 849.907L802.045 850.149L805.035 850.39L805.085 849.769L802.095 849.527ZM808.753 866.299L806.812 868.586L807.288 868.99L809.229 866.703L811.17 864.415L810.694 864.011L808.753 866.299ZM809.229 895.922L807.288 893.635L806.812 894.039L808.753 896.326L810.694 898.614L811.17 898.21L809.229 895.922ZM802.045 912.476L799.054 912.718L799.105 913.339L802.095 913.098L805.085 912.856L805.035 912.235L802.045 912.476ZM781.375 933.759L781.615 930.769L780.992 930.718L780.752 933.709L780.512 936.699L781.135 936.749L781.375 933.759ZM764.556 940.398L762.274 938.451L761.869 938.926L764.151 940.873L766.433 942.821L766.838 942.346L764.556 940.398ZM734.849 940.873L737.131 938.926L736.726 938.451L734.444 940.398L732.162 942.346L732.567 942.821L734.849 940.873ZM718.248 933.709L718.008 930.718L717.385 930.769L717.625 933.759L717.865 936.749L718.488 936.699L718.248 933.709ZM696.905 913.098L699.895 913.339L699.946 912.718L696.955 912.476L693.965 912.235L693.915 912.856L696.905 913.098ZM690.247 896.326L692.188 894.039L691.712 893.635L689.771 895.922L687.83 898.21L688.306 898.614L690.247 896.326ZM689.771 866.703L691.712 868.99L692.188 868.586L690.247 866.299L688.306 864.011L687.83 864.415L689.771 866.703ZM696.955 850.149L699.946 849.907L699.895 849.286L696.905 849.527L693.915 849.769L693.965 850.39L696.955 850.149ZM717.625 828.866L717.385 831.856L718.008 831.906L718.248 828.916L718.488 825.926L717.865 825.876L717.625 828.866ZM734.444 822.226L736.726 824.174L737.131 823.699L734.849 821.752L732.567 819.804L732.162 820.279L734.444 822.226ZM718.248 828.916L718.008 831.906C725.128 832.478 732.093 829.603 736.726 824.174L734.444 822.226L732.162 820.279C728.781 824.241 723.694 826.344 718.488 825.926L718.248 828.916ZM696.905 849.527L699.895 849.286C699.093 839.356 707.402 831.054 717.385 831.856L717.625 828.866L717.865 825.876C704.218 824.779 692.813 836.134 693.915 849.769L696.905 849.527ZM690.247 866.299L692.188 868.586C697.632 863.967 700.52 857.017 699.946 849.907L696.955 850.149L693.965 850.39C694.384 855.571 692.28 860.639 688.306 864.011L690.247 866.299ZM689.771 895.922L691.712 893.635C684.096 887.173 684.096 875.452 691.712 868.99L689.771 866.703L687.83 864.415C677.39 873.273 677.39 889.352 687.83 898.21L689.771 895.922ZM696.955 912.476L699.946 912.718C700.52 905.608 697.632 898.658 692.188 894.039L690.247 896.326L688.306 898.614C692.28 901.985 694.384 907.054 693.965 912.235L696.955 912.476ZM764.151 940.873L761.869 938.926C755.385 946.524 743.615 946.524 737.131 938.926L734.849 940.873L732.567 942.821C741.446 953.226 757.554 953.226 766.433 942.821L764.151 940.873ZM808.753 896.326L806.812 894.039C801.368 898.658 798.48 905.608 799.054 912.718L802.045 912.476L805.035 912.235C804.616 907.054 806.72 901.985 810.694 898.614L808.753 896.326ZM809.229 866.703L807.288 868.99C814.904 875.452 814.904 887.173 807.288 893.635L809.229 895.922L811.17 898.21C821.61 889.352 821.61 873.273 811.17 864.415L809.229 866.703ZM802.045 850.149L799.054 849.907C798.48 857.017 801.368 863.967 806.812 868.586L808.753 866.299L810.694 864.011C806.72 860.639 804.616 855.571 805.035 850.39L802.045 850.149ZM781.375 828.866L781.615 831.856C791.598 831.054 799.907 839.356 799.105 849.286L802.095 849.527L805.085 849.769C806.187 836.134 794.782 824.779 781.135 825.876L781.375 828.866ZM764.556 822.226L762.274 824.174C766.907 829.603 773.872 832.478 780.992 831.906L780.752 828.916L780.512 825.926C775.306 826.344 770.219 824.241 766.838 820.279L764.556 822.226ZM764.151 821.752L766.433 819.804C757.554 809.399 741.446 809.399 732.567 819.804L734.849 821.752L737.131 823.699C743.615 816.1 755.385 816.1 761.869 823.699L764.151 821.752ZM734.444 940.398L736.726 938.451C732.696 933.729 726.902 930.939 720.777 930.668L720.645 933.665L720.512 936.663C724.99 936.86 729.221 938.9 732.162 942.346L734.444 940.398ZM720.645 933.665L720.777 930.668C719.859 930.628 718.935 930.644 718.008 930.718L718.248 933.709L718.488 936.699C719.166 936.645 719.842 936.633 720.512 936.663L720.645 933.665ZM780.752 933.709L780.992 930.718C780.065 930.644 779.141 930.628 778.223 930.668L778.355 933.665L778.488 936.663C779.158 936.633 779.834 936.645 780.512 936.699L780.752 933.709ZM778.355 933.665L778.223 930.668C772.098 930.939 766.304 933.729 762.274 938.451L764.556 940.398L766.838 942.346C769.779 938.9 774.01 936.86 778.488 936.663L778.355 933.665ZM802.095 913.098L799.105 913.339C799.75 921.333 794.49 928.282 787.19 930.261L787.974 933.157L788.759 936.052C798.734 933.349 805.973 923.848 805.085 912.856L802.095 913.098ZM787.974 933.157L787.19 930.261C785.437 930.736 783.562 930.925 781.615 930.769L781.375 933.759L781.135 936.749C783.779 936.962 786.347 936.706 788.759 936.052L787.974 933.157ZM787.974 933.157H784.974V1006H787.974H790.974V933.157H787.974ZM717.625 933.759L717.385 930.769C715.438 930.925 713.563 930.736 711.81 930.261L711.026 933.157L710.241 936.052C712.653 936.706 715.221 936.962 717.865 936.749L717.625 933.759ZM711.026 933.157L711.81 930.261C704.51 928.282 699.25 921.333 699.895 913.339L696.905 913.098L693.915 912.856C693.027 923.848 700.266 933.349 710.241 936.052L711.026 933.157ZM711.026 933.157H708.026V1006H711.026H714.026V933.157H711.026Z" fill="white" fill-opacity="0.36"/>
<path d="M405.903 587.68L403.703 585.64L405.903 587.68ZM355.308 537.085L357.348 539.285L355.308 537.085ZM429.925 526.599L432.9 526.988L429.925 526.599ZM416.389 513.063L416.778 516.037V516.037L416.389 513.063ZM321.406 586.547L324.1 587.868L321.406 586.547ZM356.441 621.582L355.12 618.888L356.441 621.582ZM309.257 620.936C310.428 619.765 310.428 617.865 309.257 616.694C308.085 615.522 306.186 615.522 305.014 616.694L307.135 618.815L309.257 620.936ZM284.776 636.931C283.605 638.103 283.605 640.002 284.776 641.174C285.948 642.346 287.847 642.346 289.019 641.174L286.897 639.053L284.776 636.931ZM324.435 636.115C325.607 634.943 325.607 633.044 324.435 631.872C323.263 630.7 321.364 630.7 320.192 631.872L322.314 633.993L324.435 636.115ZM310.074 641.991C308.902 643.162 308.902 645.062 310.074 646.234C311.245 647.405 313.145 647.405 314.316 646.234L312.195 644.112L310.074 641.991ZM350.755 646.875L353.725 646.451V646.451L350.755 646.875ZM387.689 622.084L384.719 622.508V622.508L387.689 622.084ZM296.112 592.233L296.537 589.263L296.537 589.263L296.112 592.233ZM320.904 555.299L320.479 558.269L320.479 558.269L320.904 555.299ZM340.908 618.815L343.029 616.694L326.294 599.959L324.173 602.08L322.052 604.201L338.787 620.936L340.908 618.815ZM405.903 587.68L403.703 585.64C389.833 600.594 367.485 612.826 355.12 618.888L356.441 621.582L357.761 624.275C370.188 618.183 393.421 605.55 408.102 589.72L405.903 587.68ZM321.406 586.547L324.1 587.868C330.162 575.503 342.394 553.154 357.348 539.285L355.308 537.085L353.268 534.886C337.438 549.567 324.805 572.8 318.712 585.227L321.406 586.547ZM429.925 526.599L426.951 526.21C424.769 542.89 418.93 569.222 403.703 585.64L405.903 587.68L408.102 589.72C424.701 571.823 430.7 543.811 432.9 526.988L429.925 526.599ZM355.308 537.085L357.348 539.285C373.765 524.058 400.097 518.219 416.778 516.037L416.389 513.063L416 510.088C399.177 512.288 371.165 518.287 353.268 534.886L355.308 537.085ZM429.925 526.599L432.9 526.988C434.209 516.982 426.006 508.779 416 510.088L416.389 513.063L416.778 516.037C422.876 515.24 427.748 520.111 426.951 526.21L429.925 526.599ZM324.173 602.08L326.294 599.959C323.026 596.69 322.136 591.873 324.1 587.868L321.406 586.547L318.712 585.227C315.549 591.679 317.085 599.234 322.052 604.201L324.173 602.08ZM340.908 618.815L338.787 620.936C343.753 625.903 351.309 627.439 357.761 624.275L356.441 621.582L355.12 618.888C351.115 620.852 346.298 619.962 343.029 616.694L340.908 618.815ZM307.135 618.815L305.014 616.694L284.776 636.931L286.897 639.053L289.019 641.174L309.257 620.936L307.135 618.815ZM322.314 633.993L320.192 631.872L310.074 641.991L312.195 644.112L314.316 646.234L324.435 636.115L322.314 633.993ZM373.016 549.734L370.895 547.612C364.135 554.372 364.135 565.333 370.895 572.093L373.016 569.971L375.138 567.85C370.721 563.433 370.721 556.272 375.138 551.855L373.016 549.734ZM373.016 569.971L370.895 572.093C377.655 578.853 388.615 578.853 395.376 572.093L393.254 569.971L391.133 567.85C386.716 572.267 379.555 572.267 375.138 567.85L373.016 569.971ZM393.254 569.971L395.376 572.093C402.136 565.333 402.136 554.372 395.376 547.612L393.254 549.734L391.133 551.855C395.55 556.272 395.55 563.433 391.133 567.85L393.254 569.971ZM393.254 549.734L395.376 547.612C388.615 540.852 377.655 540.852 370.895 547.612L373.016 549.734L375.138 551.855C379.555 547.438 386.716 547.438 391.133 551.855L393.254 549.734ZM385.665 628.155L383.544 626.034L360.776 648.802L362.897 650.923L365.019 653.044L387.786 630.277L385.665 628.155ZM350.755 646.875L353.725 646.451L350.689 625.201L347.719 625.626L344.749 626.05L347.785 647.3L350.755 646.875ZM385.665 607.917L382.695 608.342L384.719 622.508L387.689 622.084L390.659 621.66L388.635 607.493L385.665 607.917ZM362.897 650.923L360.776 648.802C358.355 651.223 354.209 649.841 353.725 646.451L350.755 646.875L347.785 647.3C348.968 655.584 359.101 658.961 365.019 653.044L362.897 650.923ZM385.665 628.155L387.786 630.277C390.047 628.016 391.111 624.824 390.659 621.66L387.689 622.084L384.719 622.508C384.904 623.803 384.469 625.109 383.544 626.034L385.665 628.155ZM314.832 557.323L312.711 555.202L289.943 577.969L292.065 580.091L294.186 582.212L316.954 559.444L314.832 557.323ZM296.112 592.233L295.688 595.203L316.938 598.239L317.362 595.269L317.786 592.299L296.537 589.263L296.112 592.233ZM335.07 557.323L335.494 554.353L321.328 552.329L320.904 555.299L320.479 558.269L334.646 560.293L335.07 557.323ZM292.065 580.091L289.943 577.969C284.026 583.886 287.404 594.02 295.688 595.203L296.112 592.233L296.537 589.263C293.147 588.779 291.765 584.633 294.186 582.212L292.065 580.091ZM314.832 557.323L316.954 559.444C317.878 558.519 319.185 558.084 320.479 558.269L320.904 555.299L321.328 552.329C318.164 551.877 314.971 552.941 312.711 555.202L314.832 557.323Z" fill="white" fill-opacity="0.36"/>
<path d="M392.335 889.277L349.89 931.723L328.667 910.5M373.724 819.868L386.68 830.91C389.944 833.691 393.997 835.373 398.272 835.714L415.239 837.066C425.215 837.862 433.139 845.781 433.935 855.757L435.285 872.728C435.626 877.003 437.313 881.062 440.095 884.326L451.131 897.279C457.622 904.896 457.623 916.1 451.132 923.717L440.096 936.672C437.314 939.936 435.629 943.996 435.288 948.271L433.93 965.239C433.134 975.215 425.223 983.139 415.247 983.935L398.273 985.289C393.998 985.631 389.941 987.308 386.677 990.09L373.724 1001.13C366.107 1007.62 354.895 1007.62 347.278 1001.13L334.325 990.091C331.061 987.309 327.004 985.629 322.729 985.287L305.756 983.935C295.78 983.139 287.868 975.217 287.072 965.241L285.714 948.272C285.373 943.997 283.688 939.94 280.906 936.676L269.87 923.718C263.379 916.101 263.376 904.9 269.867 897.283L280.913 884.324C283.695 881.06 285.364 877.003 285.705 872.728L287.062 855.759C287.859 845.783 295.793 837.861 305.769 837.065L322.724 835.713C326.999 835.372 331.058 833.691 334.322 830.91L347.279 819.868C354.896 813.377 366.107 813.377 373.724 819.868Z" stroke="white" stroke-opacity="0.36" stroke-width="6" stroke-linecap="round" stroke-linejoin="round"/>
<path d="M655 602.571C655 626.004 674.039 645 697.525 645H810.925C829.192 645 844 630.225 844 612C844 595.375 831.678 581.621 815.649 579.334C815.735 562.332 809.277 545.303 796.275 532.331C770.442 506.556 728.558 506.556 702.725 532.331C694.226 540.81 688.523 551.023 685.616 561.829C667.927 566.967 655 583.263 655 602.571Z" stroke="white" stroke-opacity="0.36" stroke-width="6" stroke-linejoin="round"/>
<path d="M768 588.333L749 607L730 588.333M749 607L749 551" stroke="white" stroke-opacity="0.36" stroke-width="6" stroke-linecap="round" stroke-linejoin="round"/>
<path d="M1051 603.336V620.853C1051 631.756 1051 637.203 1053.12 641.367C1054.98 645.03 1057.96 648.014 1061.61 649.88C1065.77 652 1071.21 652 1082.08 652H1226M1051 603.336V506M1051 603.336L1088.46 572.08L1088.49 572.055C1095.27 566.401 1098.67 563.569 1102.35 562.418C1106.7 561.059 1111.38 561.274 1115.59 563.022C1119.16 564.503 1122.29 567.635 1128.54 573.899L1128.6 573.961C1134.96 580.322 1138.14 583.511 1141.77 584.989C1146.06 586.739 1150.83 586.889 1155.23 585.43C1158.96 584.192 1162.36 581.215 1169.17 575.252L1226 525.467" stroke="white" stroke-opacity="0.36" stroke-width="6" stroke-linecap="round" stroke-linejoin="round"/>
</svg>
