<svg width="1955" height="930" viewBox="0 0 1955 930" fill="none" xmlns="http://www.w3.org/2000/svg">
<style>
  .panel { fill: #1e1e1e; }
  .panel-inner { fill: #2a2a2a; }
  .placeholder { fill: rgba(255,255,255,0.07); stroke: rgba(255,255,255,0.12); }
  .icon-fill { fill: #c8c8c8; }
  .icon-stroke-violet { stroke: #888888; }
  .icon-stroke-blue { stroke: #888888; }
  .dash-line { stroke: #444444; stroke-dasharray: 12 8; animation: dash-move 2s linear infinite; }
  .dash-line-2 { stroke: #444444; stroke-dasharray: 12 8; animation: dash-move 2s linear infinite reverse; }
  @keyframes dash-move { to { stroke-dashoffset: -80; } }
  @media (prefers-color-scheme: light) {
    .placeholder { fill: rgba(0,0,0,0.07); stroke: rgba(0,0,0,0.12); }
    .icon-fill { fill: #666666; }
    .icon-stroke-violet { stroke: #888888; }
    .icon-stroke-blue { stroke: #888888; }
    .dash-line { stroke: #bbbbbb; }
    .dash-line-2 { stroke: #bbbbbb; }
  }
</style>
<rect width="546" height="546" rx="52" class="placeholder" stroke-width="2"/>
<path class="dash-line" d="M550.5 289C548.015 289 546 291.015 546 293.5C546 295.985 548.015 298 550.5 298V293.5V289ZM976 766C976 779.255 986.745 790 1000 790C1013.25 790 1024 779.255 1024 766C1024 752.745 1013.25 742 1000 742C986.745 742 976 752.745 976 766ZM558.75 298C561.235 298 563.25 295.985 563.25 293.5C563.25 291.015 561.235 289 558.75 289V293.5V298ZM575.25 289C572.765 289 570.75 291.015 570.75 293.5C570.75 295.985 572.765 298 575.25 298V293.5V289ZM591.75 298C594.235 298 596.25 295.985 596.25 293.5C596.25 291.015 594.235 289 591.75 289V293.5V298ZM608.25 289C605.765 289 603.75 291.015 603.75 293.5C603.75 295.985 605.765 298 608.25 298V293.5V289ZM624.75 298C627.235 298 629.25 295.985 629.25 293.5C629.25 291.015 627.235 289 624.75 289V293.5V298ZM641.25 289C638.765 289 636.75 291.015 636.75 293.5C636.75 295.985 638.765 298 641.25 298V293.5V289ZM657.75 298C660.235 298 662.25 295.985 662.25 293.5C662.25 291.015 660.235 289 657.75 289V293.5V298ZM674.25 289C671.765 289 669.75 291.015 669.75 293.5C669.75 295.985 671.765 298 674.25 298V293.5V289ZM691.379 298.43C693.853 298.67 696.053 296.86 696.294 294.387C696.535 291.913 694.725 289.713 692.251 289.472L691.815 293.951L691.379 298.43ZM711.391 293.261C709.013 292.54 706.5 293.884 705.78 296.262C705.059 298.641 706.403 301.153 708.782 301.874L710.086 297.567L711.391 293.261ZM725.166 308.667C727.357 309.841 730.084 309.016 731.257 306.825C732.431 304.634 731.606 301.907 729.415 300.734L727.291 304.701L725.166 308.667ZM745.625 311.584C743.705 310.007 740.869 310.284 739.291 312.204C737.714 314.125 737.991 316.96 739.912 318.538L742.768 315.061L745.625 311.584ZM752.462 331.088C754.04 333.009 756.875 333.286 758.796 331.709C760.716 330.131 760.993 327.295 759.416 325.375L755.939 328.232L752.462 331.088ZM770.266 341.585C769.093 339.394 766.366 338.569 764.175 339.743C761.984 340.916 761.159 343.643 762.333 345.834L766.299 343.709L770.266 341.585ZM769.126 362.218C769.847 364.597 772.359 365.941 774.738 365.22C777.116 364.5 778.46 361.987 777.739 359.609L773.433 360.914L769.126 362.218ZM781.528 378.749C781.287 376.275 779.087 374.465 776.613 374.706C774.14 374.947 772.33 377.147 772.57 379.621L777.049 379.185L781.528 378.749ZM773 397.328C773 399.813 775.015 401.828 777.5 401.828C779.985 401.828 782 399.813 782 397.328H777.5H773ZM782 414.984C782 412.499 779.985 410.484 777.5 410.484C775.015 410.484 773 412.499 773 414.984H777.5H782ZM773 432.641C773 435.126 775.015 437.141 777.5 437.141C779.985 437.141 782 435.126 782 432.641H777.5H773ZM782 450.297C782 447.812 779.985 445.797 777.5 445.797C775.015 445.797 773 447.812 773 450.297H777.5H782ZM773 467.953C773 470.438 775.015 472.453 777.5 472.453C779.985 472.453 782 470.438 782 467.953H777.5H773ZM782 485.609C782 483.124 779.985 481.109 777.5 481.109C775.015 481.109 773 483.124 773 485.609H777.5H782ZM773 503.266C773 505.751 775.015 507.766 777.5 507.766C779.985 507.766 782 505.751 782 503.266H777.5H773ZM782 520.922C782 518.437 779.985 516.422 777.5 516.422C775.015 516.422 773 518.437 773 520.922H777.5H782ZM773 538.578C773 541.063 775.015 543.078 777.5 543.078C779.985 543.078 782 541.063 782 538.578H777.5H773ZM782 556.234C782 553.749 779.985 551.734 777.5 551.734C775.015 551.734 773 553.749 773 556.234H777.5H782ZM773 573.891C773 576.376 775.015 578.391 777.5 578.391C779.985 578.391 782 576.376 782 573.891H777.5H773ZM782 591.547C782 589.062 779.985 587.047 777.5 587.047C775.015 587.047 773 589.062 773 591.547H777.5H782ZM773 609.203C773 611.688 775.015 613.703 777.5 613.703C779.985 613.703 782 611.688 782 609.203H777.5H773ZM782 626.859C782 624.374 779.985 622.359 777.5 622.359C775.015 622.359 773 624.374 773 626.859H777.5H782ZM773 644.516C773 647.001 775.015 649.016 777.5 649.016C779.985 649.016 782 647.001 782 644.516H777.5H773ZM782 662.172C782 659.687 779.985 657.672 777.5 657.672C775.015 657.672 773 659.687 773 662.172H777.5H782ZM773.472 680.751C773.713 683.225 775.913 685.035 778.387 684.794C780.86 684.553 782.67 682.353 782.43 679.879L777.951 680.315L773.472 680.751ZM785.874 697.282C785.153 694.903 782.641 693.559 780.262 694.28C777.884 695 776.54 697.513 777.261 699.891L781.567 698.586L785.874 697.282ZM784.734 717.915C785.907 720.106 788.634 720.931 790.825 719.757C793.016 718.584 793.841 715.857 792.667 713.666L788.701 715.791L784.734 717.915ZM802.538 728.412C800.96 726.491 798.125 726.214 796.204 727.791C794.284 729.369 794.007 732.205 795.584 734.125L799.061 731.268L802.538 728.412ZM809.375 747.916C811.295 749.493 814.131 749.216 815.709 747.296C817.286 745.375 817.009 742.54 815.088 740.962L812.232 744.439L809.375 747.916ZM829.834 750.833C827.643 749.659 824.916 750.484 823.743 752.675C822.569 754.866 823.394 757.593 825.585 758.766L827.709 754.799L829.834 750.833ZM843.609 766.239C845.987 766.96 848.5 765.616 849.22 763.238C849.941 760.859 848.597 758.347 846.218 757.626L844.914 761.933L843.609 766.239ZM863.621 761.07C861.147 760.83 858.947 762.64 858.706 765.113C858.465 767.587 860.275 769.787 862.749 770.028L863.185 765.549L863.621 761.07ZM880.469 770.5C882.954 770.5 884.969 768.485 884.969 766C884.969 763.515 882.954 761.5 880.469 761.5V766V770.5ZM896.406 761.5C893.921 761.5 891.906 763.515 891.906 766C891.906 768.485 893.921 770.5 896.406 770.5V766V761.5ZM912.344 770.5C914.829 770.5 916.844 768.485 916.844 766C916.844 763.515 914.829 761.5 912.344 761.5V766V770.5ZM928.281 761.5C925.796 761.5 923.781 763.515 923.781 766C923.781 768.485 925.796 770.5 928.281 770.5V766V761.5ZM944.219 770.5C946.704 770.5 948.719 768.485 948.719 766C948.719 763.515 946.704 761.5 944.219 761.5V766V770.5ZM960.156 761.5C957.671 761.5 955.656 763.515 955.656 766C955.656 768.485 957.671 770.5 960.156 770.5V766V761.5ZM976.094 770.5C978.579 770.5 980.594 768.485 980.594 766C980.594 763.515 978.579 761.5 976.094 761.5V766V770.5ZM992.031 761.5C989.546 761.5 987.531 763.515 987.531 766C987.531 768.485 989.546 770.5 992.031 770.5V766V761.5ZM550.5 293.5V298H558.75V293.5V289H550.5V293.5ZM575.25 293.5V298H591.75V293.5V289H575.25V293.5ZM608.25 293.5V298H624.75V293.5V289H608.25V293.5ZM641.25 293.5V298H657.75V293.5V289H641.25V293.5ZM674.25 293.5V298H682.5V293.5V289H674.25V293.5ZM682.5 293.5V298C685.497 298 688.459 298.146 691.379 298.43L691.815 293.951L692.251 289.472C689.042 289.16 685.789 289 682.5 289V293.5ZM710.086 297.567L708.782 301.874C714.503 303.607 719.985 305.892 725.166 308.667L727.291 304.701L729.415 300.734C723.717 297.682 717.686 295.168 711.391 293.261L710.086 297.567ZM742.768 315.061L739.912 318.538C744.493 322.302 748.698 326.507 752.462 331.088L755.939 328.232L759.416 325.375C755.28 320.341 750.659 315.72 745.625 311.584L742.768 315.061ZM766.299 343.709L762.333 345.834C765.108 351.015 767.393 356.497 769.126 362.218L773.433 360.914L777.739 359.609C775.832 353.314 773.318 347.283 770.266 341.585L766.299 343.709ZM777.049 379.185L772.57 379.621C772.854 382.541 773 385.503 773 388.5H777.5H782C782 385.211 781.84 381.958 781.528 378.749L777.049 379.185ZM777.5 388.5H773V397.328H777.5H782V388.5H777.5ZM777.5 414.984H773V432.641H777.5H782V414.984H777.5ZM777.5 450.297H773V467.953H777.5H782V450.297H777.5ZM777.5 485.609H773V503.266H777.5H782V485.609H777.5ZM777.5 520.922H773V538.578H777.5H782V520.922H777.5ZM777.5 556.234H773V573.891H777.5H782V556.234H777.5ZM777.5 591.547H773V609.203H777.5H782V591.547H777.5ZM777.5 626.859H773V644.516H777.5H782V626.859H777.5ZM777.5 662.172H773V671H777.5H782V662.172H777.5ZM777.5 671H773C773 674.289 773.16 677.542 773.472 680.751L777.951 680.315L782.43 679.879C782.146 676.959 782 673.997 782 671H777.5ZM781.567 698.586L777.261 699.891C779.168 706.186 781.682 712.217 784.734 717.915L788.701 715.791L792.667 713.666C789.892 708.485 787.607 703.003 785.874 697.282L781.567 698.586ZM799.061 731.268L795.584 734.125C799.72 739.159 804.341 743.78 809.375 747.916L812.232 744.439L815.088 740.962C810.507 737.198 806.302 732.993 802.538 728.412L799.061 731.268ZM827.709 754.799L825.585 758.766C831.283 761.818 837.314 764.332 843.609 766.239L844.914 761.933L846.218 757.626C840.497 755.893 835.015 753.608 829.834 750.833L827.709 754.799ZM863.185 765.549L862.749 770.028C865.958 770.34 869.211 770.5 872.5 770.5V766V761.5C869.503 761.5 866.541 761.354 863.621 761.07L863.185 765.549ZM872.5 766V770.5H880.469V766V761.5H872.5V766ZM896.406 766V770.5H912.344V766V761.5H896.406V766ZM928.281 766V770.5H944.219V766V761.5H928.281V766ZM960.156 766V770.5H976.094V766V761.5H960.156V766ZM992.031 766V770.5H1000V766V761.5H992.031V766Z"/>
<rect x="1000" y="601" width="329" height="329" rx="52" class="placeholder" stroke-width="2"/>
<g filter="url(#filter0_i_30_65) url(#filter_inner_blue)">
<path d="M168.476 405V164.5H210.401V405H168.476ZM235.954 405V227.712H270.404L273.329 246.562H275.442C281.725 239.629 289.092 234.321 297.542 230.637C306.1 226.846 315.417 224.95 325.492 224.95C336.108 224.95 345.533 227.062 353.767 231.287C362.108 235.404 368.662 242.175 373.429 251.6C378.196 261.025 380.579 273.592 380.579 289.3V405H339.304V291.9C339.304 280.308 336.867 272.292 331.992 267.85C327.225 263.408 320.725 261.187 312.492 261.187C308.592 261.187 304.475 261.783 300.142 262.975C295.808 264.167 291.637 266.062 287.629 268.662C283.729 271.154 280.317 274.458 277.392 278.575V405H235.954Z" class="icon-fill"/>
</g>
<g filter="url(#filter1_d_30_65) url(#filter_inner_pink)">
<path d="M1066 790.643C1066 815.141 1085.84 835 1110.33 835H1228.53C1247.57 835 1263 819.554 1263 800.5C1263 783.119 1250.16 768.74 1233.45 766.349C1233.54 748.574 1226.81 730.772 1213.26 717.21C1186.33 690.263 1142.67 690.263 1115.74 717.21C1106.89 726.075 1100.94 736.752 1097.91 748.048C1079.47 753.42 1066 770.457 1066 790.643Z" class="icon-stroke-violet" stroke-width="12" stroke-linejoin="round" shape-rendering="crispEdges"/>
</g>
<path d="M1145 756L1164.5 736L1184 756M1164.5 736L1164.5 796" class="icon-stroke-violet" stroke-width="9" stroke-linecap="round" stroke-linejoin="round"/>
<path class="dash-line-2" d="M1332 683C1329.51 683 1327.5 685.015 1327.5 687.5C1327.5 689.985 1329.51 692 1332 692V687.5V683ZM1602 392C1602 405.255 1612.75 416 1626 416C1639.25 416 1650 405.255 1650 392C1650 378.745 1639.25 368 1626 368C1612.75 368 1602 378.745 1602 392ZM1344.75 692C1347.24 692 1349.25 689.985 1349.25 687.5C1349.25 685.015 1347.24 683 1344.75 683V687.5V692ZM1370.25 683C1367.76 683 1365.75 685.015 1365.75 687.5C1365.75 689.985 1367.76 692 1370.25 692V687.5V683ZM1392.75 691.528C1395.22 691.287 1397.03 689.087 1396.79 686.613C1396.55 684.14 1394.35 682.33 1391.88 682.57L1392.32 687.049L1392.75 691.528ZM1409.28 679.126C1406.9 679.847 1405.56 682.359 1406.28 684.738C1407 687.116 1409.51 688.46 1411.89 687.739L1410.59 683.433L1409.28 679.126ZM1429.92 680.266C1432.11 679.093 1432.93 676.366 1431.76 674.175C1430.58 671.984 1427.86 671.159 1425.67 672.333L1427.79 676.299L1429.92 680.266ZM1440.41 662.462C1438.49 664.04 1438.21 666.875 1439.79 668.796C1441.37 670.716 1444.2 670.993 1446.13 669.416L1443.27 665.939L1440.41 662.462ZM1459.92 655.625C1461.49 653.705 1461.22 650.869 1459.3 649.291C1457.38 647.714 1454.54 647.991 1452.96 649.912L1456.44 652.768L1459.92 655.625ZM1462.83 635.166C1461.66 637.357 1462.48 640.084 1464.67 641.257C1466.87 642.431 1469.59 641.606 1470.77 639.415L1466.8 637.291L1462.83 635.166ZM1478.24 621.391C1478.96 619.013 1477.62 616.5 1475.24 615.78C1472.86 615.059 1470.35 616.403 1469.63 618.782L1473.93 620.086L1478.24 621.391ZM1473.07 601.379C1472.83 603.853 1474.64 606.053 1477.11 606.294C1479.59 606.535 1481.79 604.725 1482.03 602.251L1477.55 601.815L1473.07 601.379ZM1482.5 583.708C1482.5 581.223 1480.49 579.208 1478 579.208C1475.51 579.208 1473.5 581.223 1473.5 583.708H1478H1482.5ZM1473.5 566.125C1473.5 568.61 1475.51 570.625 1478 570.625C1480.49 570.625 1482.5 568.61 1482.5 566.125H1478H1473.5ZM1482.5 548.542C1482.5 546.056 1480.49 544.042 1478 544.042C1475.51 544.042 1473.5 546.056 1473.5 548.542H1478H1482.5ZM1473.5 530.958C1473.5 533.444 1475.51 535.458 1478 535.458C1480.49 535.458 1482.5 533.444 1482.5 530.958H1478H1473.5ZM1482.5 513.375C1482.5 510.89 1480.49 508.875 1478 508.875C1475.51 508.875 1473.5 510.89 1473.5 513.375H1478H1482.5ZM1473.5 495.792C1473.5 498.277 1475.51 500.292 1478 500.292C1480.49 500.292 1482.5 498.277 1482.5 495.792H1478H1473.5ZM1482.93 478.121C1483.17 475.647 1481.36 473.447 1478.89 473.206C1476.41 472.965 1474.21 474.775 1473.97 477.249L1478.45 477.685L1482.93 478.121ZM1477.76 458.109C1477.04 460.487 1478.38 463 1480.76 463.72C1483.14 464.441 1485.65 463.097 1486.37 460.718L1482.07 459.414L1477.76 458.109ZM1493.17 444.334C1494.34 442.143 1493.52 439.416 1491.33 438.243C1489.13 437.069 1486.41 437.894 1485.23 440.085L1489.2 442.209L1493.17 444.334ZM1496.08 423.875C1494.51 425.795 1494.78 428.631 1496.7 430.209C1498.62 431.786 1501.46 431.509 1503.04 429.588L1499.56 426.732L1496.08 423.875ZM1515.59 417.038C1517.51 415.46 1517.79 412.625 1516.21 410.704C1514.63 408.784 1511.8 408.507 1509.87 410.084L1512.73 413.561L1515.59 417.038ZM1526.08 399.234C1523.89 400.407 1523.07 403.134 1524.24 405.325C1525.42 407.516 1528.14 408.341 1530.33 407.167L1528.21 403.201L1526.08 399.234ZM1546.72 400.374C1549.1 399.653 1550.44 397.141 1549.72 394.762C1549 392.384 1546.49 391.04 1544.11 391.761L1545.41 396.067L1546.72 400.374ZM1563.25 387.972C1560.78 388.213 1558.97 390.413 1559.21 392.887C1559.45 395.36 1561.65 397.17 1564.12 396.93L1563.68 392.451L1563.25 387.972ZM1586.25 396.5C1588.74 396.5 1590.75 394.485 1590.75 392C1590.75 389.515 1588.74 387.5 1586.25 387.5V392V396.5ZM1612.75 387.5C1610.26 387.5 1608.25 389.515 1608.25 392C1608.25 394.485 1610.26 396.5 1612.75 396.5V392V387.5ZM1332 687.5V692H1344.75V687.5V683H1332V687.5ZM1370.25 687.5V692H1383V687.5V683H1370.25V687.5ZM1383 687.5V692C1386.29 692 1389.54 691.84 1392.75 691.528L1392.32 687.049L1391.88 682.57C1388.96 682.854 1386 683 1383 683V687.5ZM1410.59 683.433L1411.89 687.739C1418.19 685.832 1424.22 683.318 1429.92 680.266L1427.79 676.299L1425.67 672.333C1420.48 675.108 1415 677.393 1409.28 679.126L1410.59 683.433ZM1443.27 665.939L1446.13 669.416C1451.16 665.28 1455.78 660.659 1459.92 655.625L1456.44 652.768L1452.96 649.912C1449.2 654.493 1444.99 658.698 1440.41 662.462L1443.27 665.939ZM1466.8 637.291L1470.77 639.415C1473.82 633.717 1476.33 627.686 1478.24 621.391L1473.93 620.086L1469.63 618.782C1467.89 624.503 1465.61 629.985 1462.83 635.166L1466.8 637.291ZM1477.55 601.815L1482.03 602.251C1482.34 599.042 1482.5 595.789 1482.5 592.5H1478H1473.5C1473.5 595.497 1473.35 598.459 1473.07 601.379L1477.55 601.815ZM1478 592.5H1482.5V583.708H1478H1473.5V592.5H1478ZM1478 566.125H1482.5V548.542H1478H1473.5V566.125H1478ZM1478 530.958H1482.5V513.375H1478H1473.5V530.958H1478ZM1478 495.792H1482.5V487H1478H1473.5V495.792H1478ZM1478 487H1482.5C1482.5 484.003 1482.65 481.041 1482.93 478.121L1478.45 477.685L1473.97 477.249C1473.66 480.458 1473.5 483.711 1473.5 487H1478ZM1482.07 459.414L1486.37 460.718C1488.11 454.997 1490.39 449.515 1493.17 444.334L1489.2 442.209L1485.23 440.085C1482.18 445.783 1479.67 451.814 1477.76 458.109L1482.07 459.414ZM1499.56 426.732L1503.04 429.588C1506.8 425.007 1511.01 420.802 1515.59 417.038L1512.73 413.561L1509.87 410.084C1504.84 414.22 1500.22 418.841 1496.08 423.875L1499.56 426.732ZM1528.21 403.201L1530.33 407.167C1535.52 404.392 1541 402.107 1546.72 400.374L1545.41 396.067L1544.11 391.761C1537.81 393.668 1531.78 396.182 1526.08 399.234L1528.21 403.201ZM1563.68 392.451L1564.12 396.93C1567.04 396.646 1570 396.5 1573 396.5V392V387.5C1569.71 387.5 1566.46 387.66 1563.25 387.972L1563.68 392.451ZM1573 392V396.5H1586.25V392V387.5H1573V392ZM1612.75 392V396.5H1626V392V387.5H1612.75V392Z"/>
<rect x="1626" y="217" width="329" height="329" rx="52" class="placeholder" stroke-width="2"/>
<g filter="url(#filter2_i_30_65) url(#filter_inner_sky)">
<path d="M1847.67 484C1847.67 452.704 1822.3 427.333 1791 427.333C1759.7 427.333 1734.33 452.704 1734.33 484M1847.67 484H1856.77C1869.44 484 1875.77 484 1880.62 481.532C1884.88 479.359 1888.36 475.882 1890.53 471.617C1893 466.773 1893 460.438 1893 447.768V316.232C1893 303.562 1893 297.218 1890.53 292.374C1888.36 288.109 1884.88 284.644 1880.62 282.471C1875.77 280 1869.43 280 1856.74 280H1725.27C1712.57 280 1706.22 280 1701.37 282.471C1697.11 284.644 1693.64 288.109 1691.47 292.374C1689 297.222 1689 303.574 1689 316.269V447.736C1689 460.43 1689 466.768 1691.47 471.617C1693.64 475.882 1697.11 479.359 1701.37 481.532C1706.22 484 1712.56 484 1725.23 484H1734.33M1847.67 484H1734.33M1791 393.333C1772.22 393.333 1757 378.111 1757 359.333C1757 340.556 1772.22 325.333 1791 325.333C1809.78 325.333 1825 340.556 1825 359.333C1825 378.111 1809.78 393.333 1791 393.333Z" class="icon-stroke-blue" stroke-width="12" stroke-linecap="round" stroke-linejoin="round"/>
</g>
<defs>
<filter id="filter0_i_30_65" x="168.477" y="164.5" width="212.102" height="240.5" filterUnits="userSpaceOnUse" color-interpolation-filters="sRGB">
<feFlood flood-opacity="0" result="BackgroundImageFix"/>
<feBlend mode="normal" in="SourceGraphic" in2="BackgroundImageFix" result="shape"/>
<feColorMatrix in="SourceAlpha" type="matrix" values="0 0 0 0 0 0 0 0 0 0 0 0 0 0 0 0 0 0 127 0" result="hardAlpha"/>
<feOffset/>
<feGaussianBlur stdDeviation="12.6"/>
<feComposite in2="hardAlpha" operator="arithmetic" k2="-1" k3="1"/>
<feColorMatrix type="matrix" values="0 0 0 0 0 0 0 0 0 0 0 0 0 0 0 0 0 0 0.25 0"/>
<feBlend mode="normal" in2="shape" result="effect1_innerShadow_30_65"/>
</filter>
<filter id="filter1_d_30_65" x="1051.2" y="682.2" width="226.6" height="167.6" filterUnits="userSpaceOnUse" color-interpolation-filters="sRGB">
<feFlood flood-opacity="0" result="BackgroundImageFix"/>
<feColorMatrix in="SourceAlpha" type="matrix" values="0 0 0 0 0 0 0 0 0 0 0 0 0 0 0 0 0 0 127 0" result="hardAlpha"/>
<feOffset/>
<feGaussianBlur stdDeviation="4.4"/>
<feComposite in2="hardAlpha" operator="out"/>
<feColorMatrix type="matrix" values="0 0 0 0 0 0 0 0 0 0 0 0 0 0 0 0 0 0 0.25 0"/>
<feBlend mode="normal" in2="BackgroundImageFix" result="effect1_dropShadow_30_65"/>
<feBlend mode="normal" in="SourceGraphic" in2="effect1_dropShadow_30_65" result="shape"/>
</filter>
<filter id="filter2_i_30_65" x="1683" y="274" width="216" height="216" filterUnits="userSpaceOnUse" color-interpolation-filters="sRGB">
<feFlood flood-opacity="0" result="BackgroundImageFix"/>
<feBlend mode="normal" in="SourceGraphic" in2="BackgroundImageFix" result="shape"/>
<feColorMatrix in="SourceAlpha" type="matrix" values="0 0 0 0 0 0 0 0 0 0 0 0 0 0 0 0 0 0 127 0" result="hardAlpha"/>
<feOffset/>
<feGaussianBlur stdDeviation="13"/>
<feComposite in2="hardAlpha" operator="arithmetic" k2="-1" k3="1"/>
<feColorMatrix type="matrix" values="0 0 0 0 0 0 0 0 0 0 0 0 0 0 0 0 0 0 0.25 0"/>
<feBlend mode="normal" in2="shape" result="effect1_innerShadow_30_65"/>
</filter>
<filter id="filter_inner_blue" x="-20%" y="-20%" width="140%" height="140%" filterUnits="objectBoundingBox" color-interpolation-filters="sRGB">
<feFlood flood-color="#888888" flood-opacity="0.15" result="color"/>
<feComposite in="color" in2="SourceAlpha" operator="in" result="shadow"/>
<feGaussianBlur in="shadow" stdDeviation="14" result="blur"/>
<feComposite in="blur" in2="SourceAlpha" operator="in" result="innerBlur"/>
<feBlend in="SourceGraphic" in2="innerBlur" mode="normal" result="final"/>
</filter>
<filter id="filter_inner_pink" x="-20%" y="-20%" width="140%" height="140%" filterUnits="objectBoundingBox" color-interpolation-filters="sRGB">
<feFlood flood-color="#e06090" flood-opacity="0.55" result="color"/>
<feComposite in="color" in2="SourceAlpha" operator="in" result="shadow"/>
<feGaussianBlur in="shadow" stdDeviation="14" result="blur"/>
<feComposite in="blur" in2="SourceAlpha" operator="in" result="innerBlur"/>
<feBlend in="SourceGraphic" in2="innerBlur" mode="normal" result="final"/>
</filter>
<filter id="filter_inner_sky" x="-20%" y="-20%" width="140%" height="140%" filterUnits="objectBoundingBox" color-interpolation-filters="sRGB">
<feFlood flood-color="#7c5ce0" flood-opacity="0.55" result="color"/>
<feComposite in="color" in2="SourceAlpha" operator="in" result="shadow"/>
<feGaussianBlur in="shadow" stdDeviation="14" result="blur"/>
<feComposite in="blur" in2="SourceAlpha" operator="in" result="innerBlur"/>
<feBlend in="SourceGraphic" in2="innerBlur" mode="normal" result="final"/>
</filter>
</defs>
</svg>
